<svg width="480" height="480" viewBox="0 0 480 480" fill="none" xmlns="http://www.w3.org/2000/svg">
<path fill-rule="evenodd" clip-rule="evenodd" d="M203.696 197.148C203.613 196.318 203.57 195.476 203.57 194.623V32.0167C203.57 18.2005 214.771 7.00034 228.587 7.00034C242.403 7.00034 253.603 18.2006 253.603 32.0167V161.505L351.085 118.579C363.098 113.29 377.124 118.74 382.413 130.752C387.703 142.764 382.253 156.79 370.24 162.08L236.971 220.764C224.958 226.053 210.932 220.604 205.643 208.591C204.001 204.864 203.394 200.943 203.696 197.148Z" fill="#FF9B3F"/>
<path fill-rule="evenodd" clip-rule="evenodd" d="M121.016 472.93C107.2 472.93 96 461.73 96 447.914L96 32.0164C96 18.2002 107.2 7 121.016 7C134.833 7 146.033 18.2003 146.033 32.0164L146.033 447.914C146.033 461.73 134.833 472.93 121.016 472.93ZM253.603 447.984V318.496L351.086 361.421C363.098 366.71 377.124 361.261 382.413 349.248C387.703 337.236 382.253 323.21 370.241 317.92L236.971 259.236C224.959 253.947 210.933 259.397 205.643 271.409C204.002 275.136 203.395 279.058 203.697 282.852C203.613 283.682 203.571 284.525 203.571 285.377V447.984C203.571 461.8 214.771 473 228.587 473C242.403 473 253.603 461.8 253.603 447.984Z" fill="#20C1F5"/>
</svg>
